<svg xmlns="http://www.w3.org/2000/svg" viewBox="0 0 900 320" role="img" aria-labelledby="title desc">
  <title id="title">Lento lockup en</title>
  <desc id="desc">Wordmark Lento dengan tagline di bawah.</desc>
  <style>
    .sans { font-family: Inter, ui-sans-serif, system-ui, -apple-system, Segoe UI, Roboto, Arial, sans-serif; }
  </style>
  <g transform="translate(40,40)">
    <text class="sans" x="0" y="110" font-size="132" font-weight="700" fill="#111111" letter-spacing="-2">Lento</text>
    <g transform="translate(610,28)">
      <circle cx="72" cy="68" r="40" fill="none" stroke="#111111" stroke-width="12" />
      <circle cx="100" cy="48" r="8" fill="#111111"/>
    </g>
    <path d="M 8 154
             C 78 154, 94 128, 160 128
             C 232 128, 252 154, 320 154
             C 396 154, 412 136, 490 136
             C 560 136, 584 154, 664 154
             C 748 154, 768 142, 820 142"
          fill="none" stroke="#111111" stroke-width="10" stroke-linecap="round" opacity="0.92"/>
    <path d="M 10 178
             C 90 178, 112 166, 184 166
             C 258 166, 282 178, 352 178
             C 430 178, 456 166, 528 166
             C 606 166, 624 178, 716 178
             C 778 178, 808 172, 838 172"
          fill="none" stroke="#111111" stroke-width="8" stroke-linecap="round" opacity="0.75"/>
    <text class="sans" x="2" y="248" font-size="34" font-weight="500" fill="#111111">Less rush. More rhythm.</text>
  </g>
</svg>