<svg xmlns="http://www.w3.org/2000/svg" viewBox="0 0 820 220" role="img" aria-labelledby="title desc">
  <title id="title">Lento wordmark</title>
  <desc id="desc">Wordmark Lento dengan garis ritme lembut di bawah teks.</desc>
  <style>
    .word { font-family: Inter, ui-sans-serif, system-ui, -apple-system, Segoe UI, Roboto, Arial, sans-serif; }
  </style>
  <g transform="translate(36,54)">
    <text class="word" x="0" y="92" font-size="112" font-weight="700" fill="#2D3436" letter-spacing="-2">Lento</text>
    <g transform="translate(522,18)">
      <circle cx="68" cy="56" r="34" fill="none" stroke="#5B9A8B" stroke-width="10" />
      <circle cx="92" cy="40" r="6.5" fill="#E8B86D"/>
    </g>
    <path d="M 8 132
             C 64 132, 80 112, 132 112
             C 186 112, 204 132, 258 132
             C 318 132, 332 118, 394 118
             C 452 118, 472 132, 536 132
             C 608 132, 620 120, 702 120"
          fill="none" stroke="#5B9A8B" stroke-width="8" stroke-linecap="round" opacity="0.92"/>
    <path d="M 10 150
             C 76 150, 92 140, 150 140
             C 212 140, 232 150, 290 150
             C 352 150, 374 140, 436 140
             C 504 140, 520 150, 596 150
             C 650 150, 676 144, 718 144"
          fill="none" stroke="#E8B86D" stroke-width="6" stroke-linecap="round" opacity="0.75"/>
  </g>
</svg>